<svg id="Layer_1" data-name="Layer 1" xmlns="http://www.w3.org/2000/svg" viewBox="0 0 64 64">
  <g>
    <path d="M32,1A31,31,0,0,0,1,29.94l0,0h0L17.7,36.82a8.64,8.64,0,0,1,5.09-1.41l7.58-11v-.15A11.78,11.78,0,1,1,42.14,36h-.26L31,43.79a8.43,8.43,0,0,1-.66,3.54A8.59,8.59,0,0,1,14,45.88L2.31,41A31,31,0,1,0,32,1Z"/>
    <path d="M20.3,48.48l-3.84-1.59a6.55,6.55,0,0,0,3.42,3.25,6.63,6.63,0,0,0,8.67-3.57h0a6.65,6.65,0,0,0,0-5.09,6.6,6.6,0,0,0-8.47-3.67l4,1.64a4.89,4.89,0,0,1-3.75,9Z"/>
    <path d="M50,24.24a7.85,7.85,0,1,0-7.85,7.86A7.87,7.87,0,0,0,50,24.24Zm-13.72,0a5.89,5.89,0,1,1,5.89,5.91A5.9,5.9,0,0,1,36.27,24.22Z"/>
  </g>
</svg>
