<svg id="Layer_1" data-name="Layer 1" xmlns="http://www.w3.org/2000/svg" viewBox="0 0 64 64">
  <path d="M38.32,19.74v15c6.31,3.06,11.28,0,11.28-8.06,0-8.24-2.91-11.91-11.49-14.86A125.89,125.89,0,0,0,24.15,8V52.79L34.29,56V18.45c0-1.77.79-2.95,2.05-2.54C38,16.36,38.32,18,38.32,19.74ZM58.44,39.46a32.42,32.42,0,0,0-14-1.66,36.78,36.78,0,0,0-7.55,1.59l-.62.2V45.7l10.84-3.83a10.92,10.92,0,0,1,6.08-.31c1.49.48,1.21,1.41-.64,2.1L36.22,49.45v5.87l22.13-8s3-1.1,4.2-2.63S63.22,41,58.44,39.46ZM2.08,42.92C-.16,44.58.66,47.47,5.57,48.84a32.59,32.59,0,0,0,15.6,1.25l1-.16V44.66l-5,1.81a10.68,10.68,0,0,1-6.06.32c-1.49-.49-1.21-1.42.64-2.08L22.19,41V35.07L7.66,40.25A23.86,23.86,0,0,0,2.08,42.92Z"/>
</svg>
