<svg id="Layer_1" data-name="Layer 1" xmlns="http://www.w3.org/2000/svg" viewBox="0 0 64 64">
  <path d="M32,25.83h0c9.35,7.11,25.19,24.57,20.4,29.52a31,31,0,0,1-40.8,0c-4.87-5,11-22.41,20.32-29.45C31.92,25.83,32,25.83,32,25.83ZM48.15,5.5c-8.95-6-23.36-6-32.3,0,5.56-.66,15.07,3.68,16.07,4.64h.16c1.06-1,10.46-5.29,16.07-4.64ZM10.28,9.83c-.08,0-.08.08-.15.08C-.63,19.89-2,39.28,7.35,50.71,5.29,43.85,17,25.52,23.57,18.1c0-.08,0-.08-.07-.08C14,8.59,10.82,9.6,10.28,9.83ZM40.5,17.94l-.08.08a.08.08,0,0,0,.08.08c6.34,7.51,18.33,25.14,16,32.61.07,0,.15,0,.15-.08,9.36-11.45,8-30.83-2.86-40.8C53,9.52,50.2,8.53,40.5,17.94Z"/>
</svg>
